# xmcd
#
# Track frame offsets:
#	150
#	14469
#	26206
#	35732
#	46279
#	55846
#	68223
#	79394
#	101323
#	113526
#	125892
#	137124
#	148853
#	161151
#	176358
#	191352
#	201050
#	212717
#
# Disc length: 2967 seconds
#
# Revision: 1
# Processed by: cddbd v1.5.1PL0 Copyright (c) Steve Scherf et al.
# Submitted via: audiograbber 1.83.01
#
DISCID=090b9512
DTITLE=Various Artist - Country Greats - 18 Legendary Country Classics Volume 2
DYEAR=2000
DGENRE=Country
TTITLE0=Glen Campbell - Rhinestone Cowboy
TTITLE1=Kenny Rogers - Me and Bobby McGee
TTITLE2=Johnny Cash - Rock Island Line
TTITLE3=Waylon Jennings - Deram Baby
TTITLE4=Willie Nelson - Half of a Man
TTITLE5=Freddy Fender - Almost Persuaded
TTITLE6=Patsy Cline - The Heart You Break May be Your Own
TTITLE7=Merle Haggard - The Bottle let me Down (Live)
TTITLE8=Jim Reeves - Your Old Love Letters
TTITLE9=Johnny Cash - Give My Love To Rose
TTITLE10=George Jones - The Black Trembling Lips
TTITLE11=Don Williams - Tulsa Time
TTITLE12=Willie Nelson - The Shelter Of Your Arms
TTITLE13=Merle Rogers - San Antonio Rose (Live)
TTITLE14=Kenny Rogers - Just Dropped In
TTITLE15=Glen Campbell - Dreams of the Everyday Housewife (Live)
TTITLE16=Patsy Cline - If Only You Couls Stay Asleep
TTITLE17=Johnny Cash - Hey Porter
EXTD=
EXTT0=
EXTT1=
EXTT2=
EXTT3=
EXTT4=
EXTT5=
EXTT6=
EXTT7=
EXTT8=
EXTT9=
EXTT10=
EXTT11=
EXTT12=
EXTT13=
EXTT14=
EXTT15=
EXTT16=
EXTT17=
PLAYORDER=
